<svg id="Capa_1" data-name="Capa 1" xmlns="http://www.w3.org/2000/svg" viewBox="0 0 66.81 67.86"><defs><style>.cls-1{fill:#eae9e5;}.cls-2{fill:#fff;}.cls-3{fill:#ffe22e;}.cls-4{fill:#e2c32b;}</style></defs><title>beer-icon-color</title><path class="cls-1" d="M78.94-66.23V-55a8.52,8.52,0,0,1-7.15,8.38,10.58,10.58,0,0,1-1.68.14H67.5c0-1.88,0-3.76,0-5.64h2.58a2.88,2.88,0,0,0,3.07-2.66V-66.15a2.88,2.88,0,0,0-2.73-3h-3v.39q0-3-.06-6h2.81a8.74,8.74,0,0,1,8.7,7.23A8.4,8.4,0,0,1,78.94-66.23Z" transform="translate(-12.13 100.24)"/><path class="cls-2" d="M20.83-75.25c-2.49-.23-4.29-2.49-6-3.64a11.06,11.06,0,0,1-.72-13.51,11.35,11.35,0,0,1,7.07-4.73,11.53,11.53,0,0,1,6.27.31.55.55,0,0,0,.63-.12A13.26,13.26,0,0,1,43.37-98.5c.58.32,1.09.75,1.64,1.11a.5.5,0,0,0,.33.1A11.67,11.67,0,0,1,52.62-96,.45.45,0,0,0,53-96,11.82,11.82,0,0,1,66.2-94.65a11.16,11.16,0,0,1,3.48,5.12A11.06,11.06,0,0,1,67.8-79.22c-2.51.66-4.24,3.22-6.56,4v0c-2.76.62-5.45.16-8.18-.26.12.53.19,1,.33,1.48.53,1.72,1.08,3.43,1.62,5.15a11.51,11.51,0,0,1,.55,5.27,9.52,9.52,0,0,1-2.24,4.89,10,10,0,0,1-7.14,3.54A9.81,9.81,0,0,1,39-57.37a9.59,9.59,0,0,1-3.54-9.33,23.29,23.29,0,0,1,1.1-3.92,34.65,34.65,0,0,0,1.26-4.22h-.64a12.91,12.91,0,0,1-6.85-1.69.45.45,0,0,0-.54,0,10.61,10.61,0,0,1-3,1.28,11.6,11.6,0,0,1-4.69.3c-.43-.06-.85-.14-1.31-.22ZM64.38-85.91a5.48,5.48,0,0,0-.23-1.84,5.85,5.85,0,0,0-7.4-3.68,6,6,0,0,0-1.8,1l-2,1.59a.24.24,0,0,1-.35,0,.08.08,0,0,1,0,0c-.67-.55-1.34-1.11-2-1.64A5.5,5.5,0,0,0,46-91.62c-.76.15-1.49.4-2.23.61a.4.4,0,0,1-.48-.11c-.45-.47-.93-.91-1.39-1.36a7.29,7.29,0,0,0-10.3.1c-.1.11-.2.21-.29.32-.51.59-1,1.23-1.44,1.84l-.61.79-2.55-1.5A5.8,5.8,0,0,0,24-91.72,5.76,5.76,0,0,0,18-87a5.57,5.57,0,0,0,2.8,5.82,5.82,5.82,0,0,0,6.41-.4c.83-.65,1.59-1.41,2.38-2.12l.28-.25.76.61a17.58,17.58,0,0,0,2.83,2.1,5.62,5.62,0,0,0,5.46.18l5-2.65.3-.15v.24c0,.49,0,1,0,1.45,0,1.46-.08,2.92-.14,4.37a21.76,21.76,0,0,1-.29,3A33.44,33.44,0,0,1,42.27-69a19,19,0,0,0-1,3.61,4.26,4.26,0,0,0,3,4.6,4.34,4.34,0,0,0,5.45-2.81,4.29,4.29,0,0,0,0-2.72c-.43-1.45-.91-2.88-1.37-4.31a24.81,24.81,0,0,1-1.2-6.09c-.08-1.3-.11-2.6-.15-3.9,0-.54,0-1,0-1.57v-.57l.22,0,5.68,1.49a25,25,0,0,0,5.65.77A5.69,5.69,0,0,0,64.38-85.91Z" transform="translate(-12.13 100.24)"/><path class="cls-3" d="M67.8-79.22c-.06.08-.11.16-.17.23a1.28,1.28,0,0,0-.32.93c0,1.13,0,2.13,0,3.28q0,3,.06,6h0v4.41l0,12.19h.15c0,1.88,0,3.76,0,5.64h-.19V-41a8.51,8.51,0,0,1-6.86,8.39,9,9,0,0,1-1.93.2H23.8A8.54,8.54,0,0,1,15-40.67V-77.45a2.81,2.81,0,0,1,.08-.76.46.46,0,0,0-.12-.48c-.06-.06-.11-.13-.17-.2,1.73,1.15,3.53,3.41,6,3.64V-41.1a3.18,3.18,0,0,0,.09.87,2.89,2.89,0,0,0,3,2.16H58.37a4.41,4.41,0,0,0,.89-.09,2.9,2.9,0,0,0,2.23-3V-75.24l-.24,0v0C63.56-76,65.29-78.56,67.8-79.22Z" transform="translate(-12.13 100.24)"/><path class="cls-3" d="M67.48-53.63c0,.49,0,1,0,1.48h0C67.49-52.64,67.49-53.13,67.48-53.63Z" transform="translate(-12.13 100.24)"/><path class="cls-3" d="M67.48-53.63c0,.5,0,1,0,1.48h-.15l0-12.19q.06,3,.09,6.06C67.48-56.73,67.48-55.18,67.48-53.63Z" transform="translate(-12.13 100.24)"/><path class="cls-2" d="M46.93-82.75v.57H44.22c0-.48,0-1,0-1.45v-.24l-.3.15-5,2.65a5.62,5.62,0,0,1-5.46-.18,17.58,17.58,0,0,1-2.83-2.1L29.88-84l-.28.25c-.79.71-1.55,1.47-2.38,2.12a5.82,5.82,0,0,1-6.41.4A5.57,5.57,0,0,1,18-87a5.76,5.76,0,0,1,6-4.71,5.8,5.8,0,0,1,2.69.79l2.55,1.5.61-.79c.44-.61.93-1.25,1.44-1.84.09-.11.19-.21.29-.32a7.29,7.29,0,0,1,10.3-.1c.46.45.94.89,1.39,1.36a.4.4,0,0,0,.48.11c.74-.21,1.47-.46,2.23-.61a5.5,5.5,0,0,1,4.57,1.13c.66.53,1.33,1.09,2,1.64a.08.08,0,0,0,0,0,.24.24,0,0,0,.35,0l2-1.59a6,6,0,0,1,1.8-1,5.85,5.85,0,0,1,7.4,3.68,5.48,5.48,0,0,1,.23,1.84,5.69,5.69,0,0,1-5.9,5.47,25,25,0,0,1-5.65-.77L47.15-82.7Z" transform="translate(-12.13 100.24)"/><path class="cls-4" d="M61.49-41.16a2.9,2.9,0,0,1-2.23,3,4.41,4.41,0,0,1-.89.09H23.91a2.89,2.89,0,0,1-3-2.16,3.18,3.18,0,0,1-.09-.87V-75.17c.46.08.88.16,1.31.22a11.6,11.6,0,0,0,4.69-.3,10.61,10.61,0,0,0,3-1.28.45.45,0,0,1,.54,0,12.91,12.91,0,0,0,6.85,1.69h.64a34.65,34.65,0,0,1-1.26,4.22,23.29,23.29,0,0,0-1.1,3.92A9.59,9.59,0,0,0,39-57.37a9.81,9.81,0,0,0,7.16,2.25,10,10,0,0,0,7.14-3.54,9.52,9.52,0,0,0,2.24-4.89A11.51,11.51,0,0,0,55-68.82c-.54-1.72-1.09-3.43-1.62-5.15-.14-.48-.21-1-.33-1.48,2.73.42,5.42.88,8.18.26l.24,0v34.08Z" transform="translate(-12.13 100.24)"/><path class="cls-2" d="M49.7-66.31a4.29,4.29,0,0,1,0,2.72,4.34,4.34,0,0,1-5.45,2.81,4.26,4.26,0,0,1-3-4.6,19,19,0,0,1,1-3.61,33.44,33.44,0,0,0,1.52-5.82,21.76,21.76,0,0,0,.29-3c.06-1.45.11-2.91.14-4.37h2.71c0,.52,0,1,0,1.57,0,1.3.07,2.6.15,3.9a24.81,24.81,0,0,0,1.2,6.09C48.79-69.19,49.27-67.76,49.7-66.31Z" transform="translate(-12.13 100.24)"/><path class="cls-1" d="M46.18-62.11a8.7,8.7,0,0,1-9.47-1.16,8.73,8.73,0,0,0,.43,1.08,8.7,8.7,0,0,0,11.65,4,8.7,8.7,0,0,0,4-11.65,8.66,8.66,0,0,0-2.18-2.79A8.7,8.7,0,0,1,46.18-62.11Z" transform="translate(-12.13 100.24)"/><path class="cls-1" d="M59.85-82.33a8.7,8.7,0,0,1-9.47-1.16,8.73,8.73,0,0,0,.43,1.08,8.7,8.7,0,0,0,11.65,4,8.7,8.7,0,0,0,4-11.65,8.66,8.66,0,0,0-2.18-2.79A8.7,8.7,0,0,1,59.85-82.33Z" transform="translate(-12.13 100.24)"/><path class="cls-1" d="M19.22-84.12a8.7,8.7,0,0,1,.68-9.51,8.73,8.73,0,0,0-1.05.49A8.7,8.7,0,0,0,15.49-81.3a8.7,8.7,0,0,0,11.84,3.36A8.66,8.66,0,0,0,30-80.27,8.7,8.7,0,0,1,19.22-84.12Z" transform="translate(-12.13 100.24)"/><path class="cls-1" d="M36.5-90a5.52,5.52,0,0,1-1.14,5.6,4,4,0,0,0,.61-.14c2.46-.79,3.7-3.75,2.78-6.61s-3.66-4.53-6.12-3.73a4.1,4.1,0,0,0-1.63,1A5.22,5.22,0,0,1,36.5-90Z" transform="translate(-12.13 100.24)"/></svg>