<svg id="Capa_1" data-name="Capa 1" xmlns="http://www.w3.org/2000/svg" viewBox="0 0 376.07 392.37"><defs><style>.cls-1{fill:#fff;}</style></defs><title>beer-icon</title><path class="cls-1" d="M572,662.12h15.62c23.72,0,43.11,15.28,48.52,38.37a49,49,0,0,1,1.21,10.85q.16,32.54,0,65.07a48.77,48.77,0,0,1-40.19,48.32c-4.41.81-9,.71-13.5.87-3.81.13-7.62,0-11.7,0v1.77q0,15.12,0,30.25c0,23.75-15.43,43.23-38.57,48.54a47.69,47.69,0,0,1-10.53,1.15q-98,.1-196,0a48.83,48.83,0,0,1-48.32-40.22,51.29,51.29,0,0,1-.82-9.26q-.07-105.62,0-211.24c0-1.56.41-3.12.48-4.69a3.1,3.1,0,0,0-.53-2,65.43,65.43,0,0,1,23.22-103.26,61.75,61.75,0,0,1,33.54-4.79c4.71.65,9.31,2.12,14,3.14a2.54,2.54,0,0,0,2-.4c15-13.64,32.72-20.25,53-19.56a70.29,70.29,0,0,1,36,11.37c2.47,1.58,4.75,3.46,7.16,5.14a2.7,2.7,0,0,0,1.74.49A61.29,61.29,0,0,1,485.67,538c3.36,1.71,5.73,1.74,9.09,0a60.91,60.91,0,0,1,34.87-6.29,65.38,65.38,0,0,1,48.14,100.58c-1.56,2.41-3.45,4.62-5.15,6.95a3.25,3.25,0,0,0-.75,1.69c0,6.43.06,12.86.1,19.29C572,660.77,572,661.36,572,662.12Zm-261.53-1.95c0,.48-.06.91-.06,1.34q0,98.09,0,196.18c0,10,7,17,17,17q97.43,0,194.87,0a19.39,19.39,0,0,0,5.93-.92c7-2.3,11.09-8.44,11.09-16.52q0-97.68,0-195.36V660c-15.89,4-31.47,1.32-47.23-1.22a20,20,0,0,0,.32,2.21c1.84,7,3.62,14,5.6,21,2.29,8.05,5.2,16,7.06,24.09,3.53,15.42,1.3,30.14-7.24,43.6-9.83,15.48-24,24.45-42.2,26.48-17,1.9-32.13-2.94-44.68-14.57-15.8-14.64-21.52-33-17.49-54,1.62-8.45,4.69-16.62,7.1-24.92,2-6.88,4-13.76,6-20.83h-1.9c-4,0-8,.23-11.9-.17a70,70,0,0,1-29.06-9.59,2,2,0,0,0-2.49.07,59.6,59.6,0,0,1-15.68,7.16,64.13,64.13,0,0,1-27.79,2.11C315.29,661.09,312.9,660.6,310.43,660.17ZM457.09,616c.44.09.81.13,1.16.23,4.61,1.29,9.23,2.54,13.83,3.88,15.07,4.4,30.29,8.09,46,9.14A38.06,38.06,0,0,0,533,627.8a32.64,32.64,0,0,0,20.33-43.1c-7.28-19.17-31.4-26.8-48.2-15.07-4.77,3.33-9.12,7.25-13.6,11a1.64,1.64,0,0,1-2.58,0c-3.69-3.15-7.38-6.29-11.21-9.28-8-6.24-16.94-8.78-27-6.33-3.91,1-7.76,2.16-11.61,3.33a1.94,1.94,0,0,1-2.28-.57c-2.77-2.85-5.61-5.64-8.42-8.45a40.29,40.29,0,0,0-47.82-6.5,41.8,41.8,0,0,0-13.14,11.58c-3.21,4.32-6.45,8.62-9.73,13-4.84-2.94-9.56-5.86-14.33-8.67a31.33,31.33,0,0,0-26.73-3c-18.15,6-27.14,25.19-20.35,43.07,7.06,18.61,30.35,26.52,47.14,15.87a71.64,71.64,0,0,0,8.8-7.25c3-2.7,6-5.57,9-8.44,1.47,1.22,2.82,2.4,4.23,3.51,5.2,4.12,9.83,9,15.8,12.1,10.14,5.26,20.44,7,31,1.12,9.24-5.11,18.51-10.16,27.77-15.23.51-.28,1-.53,1.74-.89,0,.68,0,1.15,0,1.63-.26,11-.45,21.9-.81,32.85a137,137,0,0,1-4.77,32.74C433.37,686.93,430,697,427,707.16c-1.52,5.07-2.63,10.21-1.89,15.6,1.52,11.09,10.33,19.6,21.86,21,10.58,1.26,21.41-5.44,25.26-15.57,2.34-6.15,2-12.32.16-18.44-2.38-8-5-16-7.51-24a140,140,0,0,1-6.59-33.07c-.76-11.85-.87-23.74-1.26-35.61A10.17,10.17,0,0,1,457.09,616ZM572,792.92c5.29,0,10.4,0,15.51,0,10.18-.05,17.11-7,17.12-17.19q0-31.87,0-63.74c0-10.19-7-17.12-17.14-17.17-4.68,0-9.37,0-14.05,0-.47,0-.94.06-1.44.09Z" transform="translate(-261.32 -515.01)"/></svg>