<svg id="Capa_1" data-name="Capa 1" xmlns="http://www.w3.org/2000/svg" viewBox="0 0 170 170"><defs><style>.cls-1{fill:#fff;}</style></defs><title>img-not-found</title><rect width="170" height="170"/><path class="cls-1" d="M118.27,59.83H122a11.78,11.78,0,0,1,11.91,11.78q0,7.79,0,15.58a11.68,11.68,0,0,1-9.62,11.57,22.34,22.34,0,0,1-3.23.21c-.91,0-1.82,0-2.8,0v7.67A11.7,11.7,0,0,1,109,118.25a11.42,11.42,0,0,1-2.52.28q-23.46,0-46.92,0A11.69,11.69,0,0,1,48,108.9a12.28,12.28,0,0,1-.2-2.22q0-25.29,0-50.57c0-.37.1-.75.11-1.12a.74.74,0,0,0-.13-.48,15.66,15.66,0,0,1,5.56-24.72,14.78,14.78,0,0,1,8-1.15c1.13.16,2.23.51,3.35.75a.61.61,0,0,0,.48-.1,17.36,17.36,0,0,1,12.69-4.68,16.83,16.83,0,0,1,8.62,2.72c.59.38,1.14.83,1.71,1.23a.65.65,0,0,0,.42.12,14.67,14.67,0,0,1,8.94,1.43,2.07,2.07,0,0,0,2.18,0,14.58,14.58,0,0,1,8.35-1.51,15.65,15.65,0,0,1,11.53,24.08c-.37.58-.83,1.11-1.23,1.66a.78.78,0,0,0-.18.4c0,1.54,0,3.08,0,4.62C118.27,59.5,118.27,59.64,118.27,59.83Zm-62.61-.47c0,.11,0,.22,0,.32v47a3.9,3.9,0,0,0,4.07,4.07h46.65a4.64,4.64,0,0,0,1.42-.22,3.9,3.9,0,0,0,2.66-4V59.32c-3.8,1-7.53.32-11.31-.29a4.79,4.79,0,0,0,.08.53c.44,1.68.87,3.35,1.34,5,.55,1.93,1.24,3.83,1.69,5.77A13.72,13.72,0,0,1,90.4,87.13a13,13,0,0,1-10.7-3.49,13.28,13.28,0,0,1-4.19-12.93c.39-2,1.12-4,1.7-6,.48-1.65,1-3.29,1.44-5H78.2a28.18,28.18,0,0,1-2.85,0,16.76,16.76,0,0,1-7-2.3.48.48,0,0,0-.6,0A14.27,14.27,0,0,1,64,59.15a15.35,15.35,0,0,1-6.65.51c-.58-.08-1.15-.2-1.75-.3Zm35.1-10.57.28.06c1.1.31,2.21.61,3.31.93a51.62,51.62,0,0,0,11,2.19,9.11,9.11,0,0,0,3.57-.35,7.81,7.81,0,0,0,5-9.83q-.08-.24-.17-.48a7.75,7.75,0,0,0-11.54-3.61c-1.14.8-2.18,1.74-3.26,2.63a.39.39,0,0,1-.55.07l-.07-.07c-.88-.75-1.77-1.51-2.68-2.22a7.27,7.27,0,0,0-6.46-1.52c-.94.24-1.86.52-2.78.8a.46.46,0,0,1-.55-.14c-.66-.68-1.34-1.35-2-2a9.65,9.65,0,0,0-11.45-1.56,10,10,0,0,0-3.15,2.77L67,39.55c-1.16-.7-2.29-1.4-3.43-2.08a7.5,7.5,0,0,0-6.4-.72,7.8,7.8,0,1,0,6.41,14.11,17.15,17.15,0,0,0,2.11-1.74c.72-.65,1.44-1.33,2.15-2,.35.29.68.57,1,.84a24.79,24.79,0,0,0,3.78,2.9c2.43,1.26,4.89,1.68,7.42.27,2.21-1.22,4.43-2.43,6.65-3.65l.42-.21v.39c-.06,2.63-.11,5.24-.19,7.86a32.8,32.8,0,0,1-1.14,7.84c-.68,2.42-1.49,4.83-2.21,7.26a8.74,8.74,0,0,0-.45,3.73,5.86,5.86,0,0,0,11.28,1.3,6.68,6.68,0,0,0,0-4.41c-.57-1.92-1.2-3.83-1.8-5.75A33.52,33.52,0,0,1,91,57.57c-.18-2.84-.21-5.68-.3-8.53A2.44,2.44,0,0,1,90.76,48.78Zm27.51,42.36H122a3.92,3.92,0,0,0,4.1-4.12V71.76a3.92,3.92,0,0,0-4.1-4.11h-3.36l-.34,0Z"/><path class="cls-1" d="M46.23,141.83H45v-6h1.26Z"/><path class="cls-1" d="M51.43,135.78h1.82v6H52.07v-4.09q0-.18,0-.49t0-.49l-1.15,5.08H49.7l-1.14-5.08q0,.17,0,.49t0,.49v4.09H47.39v-6h1.84l1.1,4.76Z"/><path class="cls-1" d="M56.14,135.78h1.43l2.14,6H58.34l-.4-1.24H55.72l-.41,1.24H54Zm-.08,3.76h1.55l-.76-2.38Z"/><path class="cls-1" d="M64.55,137.67a1.18,1.18,0,0,0-.7-.87,1.72,1.72,0,0,0-.69-.14,1.51,1.51,0,0,0-1.2.55,2.5,2.5,0,0,0-.47,1.66,2.05,2.05,0,0,0,.51,1.58,1.67,1.67,0,0,0,1.16.46,1.5,1.5,0,0,0,1-.37,1.57,1.57,0,0,0,.5-1h-1.4v-1h2.52v3.25H65l-.13-.75a2.89,2.89,0,0,1-.66.6A2.31,2.31,0,0,1,63,142a2.56,2.56,0,0,1-2-.83,3.17,3.17,0,0,1-.8-2.29,3.36,3.36,0,0,1,.81-2.35,2.76,2.76,0,0,1,2.14-.89,2.79,2.79,0,0,1,1.85.58,2.17,2.17,0,0,1,.8,1.46Z"/><path class="cls-1" d="M71.49,136.85h-3.2v1.28h2.94v1.05H68.29v1.56h3.35v1.09H67.06v-6h4.44Z"/><path class="cls-1" d="M74.94,135.78h1.32l2.4,4.22v-4.22h1.18v6H78.58l-2.46-4.29v4.29H74.94Z"/><path class="cls-1" d="M85.69,141.29a3.14,3.14,0,0,1-4,0,3.26,3.26,0,0,1-.92-2.49,3.2,3.2,0,0,1,.92-2.49,3.14,3.14,0,0,1,4,0,3.21,3.21,0,0,1,.91,2.49A3.27,3.27,0,0,1,85.69,141.29Zm-.79-.92a3,3,0,0,0,0-3.15,1.44,1.44,0,0,0-1.19-.56,1.46,1.46,0,0,0-1.2.55,3,3,0,0,0,0,3.15,1.46,1.46,0,0,0,1.2.55A1.44,1.44,0,0,0,84.9,140.37Z"/><path class="cls-1" d="M92,135.78v1.07H90.15v5H88.88v-5H87.06v-1.07Z"/><path class="cls-1" d="M95,135.79h4.31v1.06H96.29v1.39H99v1.05H96.29v2.54H95Z"/><path class="cls-1" d="M104.82,141.29a3.14,3.14,0,0,1-4,0,3.26,3.26,0,0,1-.92-2.49,3.2,3.2,0,0,1,.92-2.49,3.14,3.14,0,0,1,4,0,3.21,3.21,0,0,1,.91,2.49A3.27,3.27,0,0,1,104.82,141.29Zm-.79-.92a3,3,0,0,0,0-3.15,1.44,1.44,0,0,0-1.19-.56,1.46,1.46,0,0,0-1.2.55,3,3,0,0,0,0,3.15,1.46,1.46,0,0,0,1.2.55A1.44,1.44,0,0,0,104,140.37Z"/><path class="cls-1" d="M106.7,135.78H108v3.71a2.1,2.1,0,0,0,.15.91,1.23,1.23,0,0,0,2,0,2.11,2.11,0,0,0,.15-.91v-3.71h1.28v3.72a3.12,3.12,0,0,1-.3,1.5,2.79,2.79,0,0,1-4.26,0,3.12,3.12,0,0,1-.3-1.5Z"/><path class="cls-1" d="M112.75,135.78h1.32l2.4,4.22v-4.22h1.18v6h-1.26l-2.46-4.29v4.29h-1.18Z"/><path class="cls-1" d="M122.38,135.91a2,2,0,0,1,1,.77,2.7,2.7,0,0,1,.43,1,4.69,4.69,0,0,1,.11,1,4,4,0,0,1-.48,2,2.19,2.19,0,0,1-2,1.13h-2.61v-6h2.61A3.18,3.18,0,0,1,122.38,135.91Zm-2.32.92v3.95h1.17a1.26,1.26,0,0,0,1.25-.88,3.1,3.1,0,0,0,.19-1.15,2.84,2.84,0,0,0-.29-1.42,1.22,1.22,0,0,0-1.15-.49Z"/></svg>